# xmcd
#
# Track frame offsets:
#	150
#	12752
#	32080
#	46502
#	67065
#	79122
#	93279
#	103902
#	110904
#	127822
#	150655
#	164087
#	182705
#	191715
#	203085
#	216472
#	231472
#	244765
#
# Disc length: 3464 seconds
# Revision: 0
# Processed by: cddbd v1.5.2PL0 Copyright (c) Steve Scherf et al.
# Submitted via: dBpowerAMP V12.0
#
DISCID=fd0d8612
DTITLE=Fleetwood Mac - The Best Of The Original Fleetwood Mac
DYEAR=1988
DGENRE=Blues
TTITLE0=Black Magic Woman
TTITLE1=I've Lost My Baby
TTITLE2=One Sunny Day
TTITLE3=Without You
TTITLE4=Coming Home
TTITLE5=Albatross
TTITLE6=Stop Messin' Around
TTITLE7=Jigsaw Puzzle Blues
TTITLE8=Doctor Brown
TTITLE9=Love That Burns
TTITLE10=My Heart Beat Like A Hammer
TTITLE11=Merry Go Round
TTITLE12=Hellhound On My Trail
TTITLE13=The World Keep On Turning
TTITLE14=If I Loved Another Woman
TTITLE15=Cold Black Night
TTITLE16=Shake Your Moneymaker
TTITLE17=No Place To Go
EXTD=
EXTT0=
EXTT1=
EXTT2=
EXTT3=
EXTT4=
EXTT5=
EXTT6=
EXTT7=
EXTT8=
EXTT9=
EXTT10=
EXTT11=
EXTT12=
EXTT13=
EXTT14=
EXTT15=
EXTT16=
EXTT17=
PLAYORDER=
